<svg xmlns="http://www.w3.org/2000/svg" xmlns:xlink="http://www.w3.org/1999/xlink" viewBox="0 0 596.26 381.68"><defs><style>.cls-1{isolation:isolate;}.cls-2{fill:#fff;}.cls-3{fill:url(#linear-gradient);}.cls-4{opacity:0.7;mix-blend-mode:screen;fill:url(#linear-gradient-2);}.cls-5{fill:#ffd524;}.cls-6{fill:#ffc32e;}.cls-7{fill:#ffe2b2;}.cls-8{fill:#3d4051;}.cls-9{fill:#ff582a;}.cls-10{fill:#ae1e0b;}.cls-11{fill:#009fda;}.cls-12{fill:#0071b8;}.cls-13{fill:#484d5b;}.cls-14{fill:#cadfef;}.cls-15{fill:#8d5115;}.cls-16{fill:#774206;}.cls-17{mix-blend-mode:multiply;}.cls-18{fill:#00c4d8;}.cls-19{fill:#008c41;}.cls-20{fill:#00b255;}</style><linearGradient id="linear-gradient" x1="194.33" y1="182.46" x2="596.26" y2="182.46" gradientUnits="userSpaceOnUse"><stop offset="0" stop-color="#8ee5b6"/><stop offset="1" stop-color="#00c4d8"/></linearGradient><linearGradient id="linear-gradient-2" x1="415.07" y1="160.73" x2="310.96" y2="279.4" gradientUnits="userSpaceOnUse"><stop offset="0" stop-color="#a7ebeb"/><stop offset="1" stop-color="#a7ebeb" stop-opacity="0"/></linearGradient></defs><title>Asset 4</title><g class="cls-1"><g id="Layer_2" data-name="Layer 2"><g id="OBJECTS"><rect class="cls-2" width="596.26" height="381.68"/><path class="cls-3" d="M596.26,0V364.92c-27.94-6.1-54.52-22.67-67.55-48.09-8.21-16-11.56-35.79-25.9-46.66-12-9.12-28.86-9.21-43.36-5s-27.59,12.11-41.47,18c-21.65,9.29-46.1,13.73-69,8.1S305.33,268.72,299.14,246c-6.68-24.61,3-54.63-13.74-73.92-18.67-21.58-56.82-13.13-77.52-32.78-13.24-12.55-15.22-33.06-12.5-51.1s9.26-35.53,9.86-53.77c.39-12-2.62-24.92-9.49-34.41Z"/><path class="cls-4" d="M587.1,327.9c-24.83-1.46-50.7-16.44-56.58-40.61-5.23-21.51,5.44-47-7.69-64.84-10.12-13.73-30.81-15.71-46.55-9.14s-27.71,19.61-39.17,32.23-23.51,25.63-39.34,32a57,57,0,0,1-78.06-47.42c-1.64-17,4.33-33.68,6.15-50.63s-2.24-36.88-17.25-45c-12.85-6.93-28.53-2.64-42.77.57s-31.45,4.28-41.15-6.63c-11.11-12.49-5.22-32.15,2.46-47C240.71,55.3,258.75,28.63,259.71,0h-64c6.87,9.49,9.88,22.41,9.49,34.41-.6,18.24-7.13,35.73-9.86,53.77s-.74,38.55,12.5,51.1c20.7,19.65,58.85,11.2,77.52,32.78,16.7,19.29,7.06,49.31,13.74,73.92,6.19,22.74,27,39.71,49.87,45.33s47.32,1.19,69-8.1c13.88-5.94,27-13.86,41.47-18s31.33-4.11,43.36,5c14.34,10.87,17.69,30.65,25.9,46.66,13,25.42,39.61,42,67.55,48.09V328C593.22,328.09,590.16,328.07,587.1,327.9Zm-95.63-86.42c-6.65,4-22.2,3.7-22.2-7,0-9,13.55-15,21.09-14.78C504.49,220.05,500.21,236.25,491.47,241.48ZM518,238.33a4.35,4.35,0,0,1-2.48,2.64,5,5,0,0,1-3.95-.47,7.74,7.74,0,0,1-4-5.17c-.49-2.34.15-5.76,2.64-6.75a5.92,5.92,0,0,1,5.45,1.1,8,8,0,0,1,2.58,4.95A7.47,7.47,0,0,1,518,238.33Z"/><path class="cls-5" d="M525.46,236.21l43.32-68a4.37,4.37,0,0,1,6-1.33l4.46,2.84a4.35,4.35,0,0,1,1.33,6l-43.31,68-7.55,5.1-7.07,4.79L524,245.2Z"/><path class="cls-6" d="M531.38,240l45.67-71.67,2.23,1.42a4.35,4.35,0,0,1,1.33,6l-43.31,68Z"/><polygon class="cls-7" points="525.46 236.21 537.29 243.74 529.75 248.84 522.68 253.63 524.03 245.2 525.46 236.21"/><polygon class="cls-8" points="524.03 245.2 529.75 248.84 522.68 253.63 524.03 245.2"/><path class="cls-9" d="M564.34,175.18l4.44-7a4.37,4.37,0,0,1,6-1.33l4.46,2.84a4.35,4.35,0,0,1,1.33,6l-4.44,7Z"/><rect class="cls-8" x="561.93" y="178.57" width="14.03" height="4.89" transform="translate(951.51 639.39) rotate(-147.5)"/><path class="cls-10" d="M570.26,179l6.79-10.65,2.23,1.42a4.35,4.35,0,0,1,1.33,6l-4.44,7Z"/><path class="cls-11" d="M249.39,111.19l76.48-25.5a4.38,4.38,0,0,1,5.53,2.77l1.67,5A4.35,4.35,0,0,1,330.31,99l-76.49,25.5-9.07-.8-8.51-.74,6.37-5.7Z"/><path class="cls-12" d="M251.61,117.84,332.24,91l.83,2.52A4.35,4.35,0,0,1,330.31,99l-76.49,25.5Z"/><polygon class="cls-7" points="249.39 111.19 253.82 124.5 244.75 123.7 236.24 122.96 242.61 117.26 249.39 111.19"/><polygon class="cls-8" points="242.61 117.26 244.75 123.7 236.24 122.96 242.61 117.26"/><path class="cls-5" d="M318,88.31l7.84-2.62a4.38,4.38,0,0,1,5.53,2.77l1.67,5A4.35,4.35,0,0,1,330.31,99l-7.84,2.61Z"/><rect class="cls-8" x="310.91" y="93.29" width="14.03" height="4.89" transform="translate(327.64 427.62) rotate(-108.44)"/><path class="cls-6" d="M320.25,95l12-4,.83,2.52A4.35,4.35,0,0,1,330.31,99l-7.84,2.61Z"/><path class="cls-8" d="M402.25,116.29,348.67,134.6l9.46,27.26a62.11,62.11,0,0,0,53.49-18.57Z"/><polygon class="cls-8" points="433.14 107.51 384.88 151.19 319.94 146.79 326.7 140.69 330.33 137.39 368.19 103.1 419.15 106.56 424.05 106.9 433.14 107.51"/><polygon class="cls-13" points="424.05 106.9 382.55 144.47 326.7 140.69 330.33 137.39 368.19 103.1 419.15 106.56 424.05 106.9"/><polygon class="cls-5" points="317.89 184.24 315.26 184 318.7 145.88 375.7 122.48 376.7 124.92 321.18 147.71 317.89 184.24"/><path class="cls-5" d="M318,170l-.54-.17c-1.63.62-7.28,3.77-8.4,17.94l11.74,1.81C323.81,175.78,319.36,171.11,318,170Z"/><path class="cls-14" d="M551.67,85.2a6.28,6.28,0,1,1,8.48,2.65A6.29,6.29,0,0,1,551.67,85.2Zm10.21-5.35a5.24,5.24,0,1,0-2.21,7.08A5.25,5.25,0,0,0,561.88,79.85Z"/><rect class="cls-2" x="515.1" y="96.86" width="24.04" height="1.81" transform="translate(369.15 -414.54) rotate(62.36)"/><polygon class="cls-14" points="499.67 127.68 494.66 132.73 500.56 128.76 505.75 124.47 504.85 123.4 499.67 127.68"/><rect class="cls-8" x="495.58" y="104.56" width="65.59" height="4.1" transform="translate(53.22 361.11) rotate(-39.58)"/><path class="cls-2" d="M511.89,125.27a3.88,3.88,0,1,1,.52-5.46A3.87,3.87,0,0,1,511.89,125.27Z"/><path class="cls-14" d="M510.83,124a2.22,2.22,0,1,1,.3-3.12A2.22,2.22,0,0,1,510.83,124Z"/><polygon class="cls-14" points="487.24 103.94 480.23 105.19 486.86 102.59 493.33 100.77 493.71 102.12 487.24 103.94"/><rect class="cls-8" x="488.11" y="90.3" width="65.59" height="4.1" transform="translate(-5.55 144.48) rotate(-15.71)"/><rect class="cls-8" x="554.91" y="79.76" width="11.22" height="1.6" transform="translate(26.61 269.28) rotate(-27.65)"/><path class="cls-14" d="M521.94,100.48h0a1.17,1.17,0,0,1,.49-1.59l8.1-4.24a1.17,1.17,0,0,1,1.59.5h0a1.17,1.17,0,0,1-.5,1.59L523.53,101A1.18,1.18,0,0,1,521.94,100.48Z"/><path class="cls-2" d="M555.4,88.15a4.35,4.35,0,1,1,1.83-5.87A4.34,4.34,0,0,1,555.4,88.15Z"/><path class="cls-14" d="M554.52,86.46a2.44,2.44,0,1,1,1-3.29A2.44,2.44,0,0,1,554.52,86.46Z"/><rect class="cls-2" x="569.5" y="65.41" width="4.66" height="18.46" rx="1.58" ry="1.58" transform="translate(372.69 -466.57) rotate(62.36)"/><path class="cls-14" d="M427.21,278.45s-8.12-19.6-24.14-21.42-47.32,16.62-101.19,16.62l-10.56,16H427.21Z"/><path class="cls-2" d="M427.21,278.45s1.34-17.17-7.21-21.54c-10.61-5.42-49.87,6.19-96.89-26.45l-14.56,28.63s17.26,11.06,47.08,14.2C393.73,277.29,409.38,254.78,427.21,278.45Z"/><path class="cls-14" d="M427.22,278.45s8.12-19.6,24.14-21.42,47.32,16.62,101.19,16.62l10.56,16H427.22Z"/><path class="cls-2" d="M427.21,276.16s3.89-19.61,19.91-21.71,52.41,12.65,62.61,13.74,40.4,2,40.4,2l5.59,8.26s-35-.34-45.63-1.52c-13.1-1.46-41.5-17.84-60.79-15.11s-21.47,16.65-21.47,16.65Z"/><rect class="cls-15" x="284.77" y="289.67" width="287.57" height="8.01"/><path class="cls-15" d="M437.41,304.23H417a10.56,10.56,0,0,1-10.56-10.56H448A10.56,10.56,0,0,1,437.41,304.23Z"/><path class="cls-16" d="M435.62,298.33H418.81a8.71,8.71,0,0,1-8.7-8.71h0l17.11-13.47,17.11,13.47h0A8.71,8.71,0,0,1,435.62,298.33Z"/><path class="cls-5" d="M444.32,289.62a8.69,8.69,0,0,1-1.66,5.13l-15.45-12.16-15.44,12.16a8.69,8.69,0,0,1-1.66-5.13l17.1-13.46Z"/><g class="cls-17"><path class="cls-18" d="M308.7,76.23a3.69,3.69,0,0,1-4.88,1.83l-8.47-3.85a.52.52,0,0,1,.43-.95l8.47,3.85a2.64,2.64,0,1,0,2.19-4.81l-9.79-4.45a1.85,1.85,0,1,0-1.53,3.36l8.09,3.68a1.09,1.09,0,1,0,.9-2l-6-2.72a.52.52,0,0,1-.25-.69.51.51,0,0,1,.68-.26l6,2.72a2.13,2.13,0,1,1-1.76,3.88l-8.09-3.68a2.89,2.89,0,0,1,2.39-5.26l9.79,4.46A3.68,3.68,0,0,1,308.7,76.23Z"/></g><g class="cls-17"><path class="cls-18" d="M295.39,150l.59-.29c2-1,3-2.27,2.83-3.52-.17-1.52-2-2.63-4.68-3.12.26-2.74-.32-4.78-1.75-5.34s-3.24.5-4.94,2.67c-2.3-1.51-4.38-1.95-5.54-1-.95.82-1.09,2.41-.38,4.51.07.2.15.4.23.61-2.25,1-3.57,2.4-3.42,3.82.12,1.07,1,1.94,2.52,2.53a10.89,10.89,0,0,0,2.16.59c-.26,2.75.32,4.78,1.74,5.35s3.25-.51,4.95-2.68a11.3,11.3,0,0,0,2,1.06c1.48.59,2.75.6,3.57-.1C296.33,154.22,296.31,152.31,295.39,150Zm.55-5.38c1.13.45,1.8,1.05,1.87,1.68.09.8-.75,1.72-2.29,2.53l-.54.26a18.47,18.47,0,0,0-1.53-2.6,20.09,20.09,0,0,0,.55-2.41A10.32,10.32,0,0,1,295.94,144.63Zm-7,6c-.6.06-1.18.1-1.75.12-.39-.4-.79-.83-1.18-1.29s-.85-1-1.22-1.56c.18-.61.4-1.23.66-1.87a19,19,0,0,1,.81-1.81c.62-.12,1.28-.22,2-.3s1.18-.09,1.74-.11c.4.4.79.82,1.19,1.28s.85,1,1.22,1.57c-.19.6-.4,1.23-.66,1.87s-.53,1.24-.81,1.81C290.26,150.48,289.6,150.58,288.93,150.65Zm1.36.82c-.27.47-.54.91-.82,1.31-.43-.31-.86-.67-1.3-1.06l.86-.08C289.46,151.6,289.88,151.54,290.29,151.47Zm-4.48-.69c-.58,0-1.14-.06-1.67-.12.08-.49.18-1,.31-1.52.25.33.51.66.79,1Zm-1.74-3.92a16.29,16.29,0,0,1-1-1.75,16.19,16.19,0,0,1,1.92-.59c-.17.37-.34.76-.5,1.16S284.21,146.47,284.07,146.86Zm2.78-3.74c.27-.47.54-.9.82-1.3a16.34,16.34,0,0,1,1.29,1.06l-.86.07Zm4.48.7c.59,0,1.14.06,1.67.12-.08.48-.18,1-.31,1.51-.25-.33-.51-.66-.79-1S291.52,144,291.33,143.82Zm1.74,3.91a18.83,18.83,0,0,1,1,1.76,18.87,18.87,0,0,1-1.92.59c.17-.38.34-.76.5-1.16S292.93,148.12,293.07,147.73ZM292,138.66c.88.35,1.31,2,1.11,4.27a20.27,20.27,0,0,0-2.76-.12,20.66,20.66,0,0,0-2.08-1.81C289.71,139.18,291.14,138.31,292,138.66Zm-9.46,1.56c.48-.42,1.38-.38,2.51.07a10.26,10.26,0,0,1,1.77.94,22,22,0,0,0-1.25,2.12,21.84,21.84,0,0,0-2.9.83c-.08-.18-.15-.37-.21-.55C281.91,142,281.94,140.74,282.55,140.22Zm-3.22,8.07c-.1-.88,1-1.93,2.83-2.79a20.73,20.73,0,0,0,1.52,2.59,20.41,20.41,0,0,0-.54,2.41C280.86,150.08,279.43,149.22,279.33,148.29Zm5.79,7.64c-.87-.35-1.31-2-1.1-4.27a20.27,20.27,0,0,0,2.76.12,19.67,19.67,0,0,0,2.09,1.81C287.43,155.41,286,156.28,285.12,155.93Zm9.47-1.55c-.72.61-2.35.24-4.29-1a19.14,19.14,0,0,0,1.26-2.12,18.9,18.9,0,0,0,2.89-.84C295.22,152.32,295.26,153.81,294.59,154.38Z"/><path class="cls-18" d="M289.29,145.49a1.95,1.95,0,1,0,1.09,2.53A1.95,1.95,0,0,0,289.29,145.49Z"/></g><g class="cls-17"><path class="cls-18" d="M565.84,232.16a5.41,5.41,0,0,0,2.79,6.37l-.75,2.57a3,3,0,0,0-2.71,1.93l5.7,1.68a3,3,0,0,0-1.22-3.09l.75-2.57a5.4,5.4,0,0,0,5.81-3.83l2-6.82-10.36-3.06Z"/><path class="cls-18" d="M571.29,245.35l-6.81-2a.56.56,0,0,0-.7.37.57.57,0,0,0,.38.7l6.81,2a.56.56,0,0,0,.69-.38A.55.55,0,0,0,571.29,245.35Z"/><path class="cls-18" d="M562.5,228.22a3,3,0,0,0,2,3.73l.6.17.34-1.14-.6-.18a1.81,1.81,0,0,1,1-3.47l.59.17.34-1.14-.6-.17A3,3,0,0,0,562.5,228.22Z"/><path class="cls-18" d="M579.12,230l-.59-.18-.34,1.15.59.17a1.81,1.81,0,1,1-1,3.48l-.6-.18-.33,1.14.59.18a3,3,0,0,0,1.7-5.76Z"/></g><g class="cls-17"><path class="cls-18" d="M568.88,119.83l-2-3.42-5.16,3,2,3.42a5.31,5.31,0,0,0,.13,5.07,5.38,5.38,0,1,0,5-8Zm1.5,8.61a3.75,3.75,0,0,1-5.11-1.4s0,0,0,0l6.49-3.7,0,0A3.75,3.75,0,0,1,570.38,128.44Z"/><path class="cls-18" d="M561.34,118.48l5.06-2.88a1.06,1.06,0,0,0-1-1.85l-5.06,2.89a1.06,1.06,0,1,0,1.05,1.84Z"/></g><g class="cls-17"><path class="cls-18" d="M467.12,87.73a4,4,0,0,0,0-5.29,3.93,3.93,0,0,0-1.52-1.09l-.28-1.74a2.18,2.18,0,0,0-2-1.85l-6.74-.48a2.18,2.18,0,0,0-2.24,1.5l-.58,1.77a4.07,4.07,0,0,0-1.6.85,4,4,0,0,0-.71,5.24L454,84.5l.55.64A6.29,6.29,0,0,0,454,93l-1.17,1a.69.69,0,1,0,.91,1l1.17-1a6.3,6.3,0,0,0,7.85.57l1.15,1.33a.69.69,0,0,0,1.05-.91l-1.15-1.32a6.3,6.3,0,0,0,.56-7.87l.66-.57Zm-3.61.66-4.08,2.12a.7.7,0,0,1-.37.07.66.66,0,0,1-.45-.21l-2.89-3a.7.7,0,1,1,1-1L459.25,89l3.62-1.88a.7.7,0,0,1,.64,1.24Zm-1.59-6.66,2.15,2.47-.66.57a6.16,6.16,0,0,0-3-1.53l.07-.91a.83.83,0,0,0-1.65-.12l-.07.91a6.31,6.31,0,0,0-3.2,1.1l-.55-.63,2.47-2.15a4,4,0,0,0-2.67-1l.44-1.35a1.28,1.28,0,0,1,1.3-.87l6.73.48a1.28,1.28,0,0,1,1.17,1.07l.21,1.34A4,4,0,0,0,461.92,81.73Z"/><path class="cls-18" d="M468,79.63a.46.46,0,0,0-.53.76,4.46,4.46,0,0,1,2,3.88c0,.6.9.67.92.07A5.38,5.38,0,0,0,468,79.63Z"/><path class="cls-18" d="M469.83,78.46c-.5-.33-1,.44-.53.77a4.45,4.45,0,0,1,2,3.88c0,.59.9.66.92.06A5.41,5.41,0,0,0,469.83,78.46Z"/><path class="cls-18" d="M451.42,78.44a.46.46,0,0,1,.41.83,4.44,4.44,0,0,0-2.55,3.55c-.06.6-1,.53-.92-.06A5.36,5.36,0,0,1,451.42,78.44Z"/><path class="cls-18" d="M449.79,77a.46.46,0,0,1,.41.83,4.43,4.43,0,0,0-2.54,3.55c-.07.6-1,.53-.93-.06A5.38,5.38,0,0,1,449.79,77Z"/></g><g class="cls-17"><path class="cls-18" d="M366.22,80.83l.33,1.49-3.78.84.29,1.33,3.42-.75.33,1.49-3.42.76.3,1.35,3.88-.86L367.9,88l-5.75,1.27-1.58-7.17Z"/><path class="cls-18" d="M372.13,81.77l.26,1.17-4.56,1-.26-1.17Zm.49,2.21.25,1.16-4.56,1L368.06,85Z"/><path class="cls-18" d="M382.86,81l.77,3.49-1.82.4-.65-3a.9.9,0,0,0-1.13-.81,1.12,1.12,0,0,0-.77,1.47l.6,2.73-1.82.4-.65-3a.9.9,0,0,0-1.13-.81,1.12,1.12,0,0,0-.78,1.47l.6,2.73-1.81.4L373.05,81l1.81-.4.2.91a2,2,0,0,1,1.58-1.37,1.88,1.88,0,0,1,2.12.83,2,2,0,0,1,1.66-1.66A2,2,0,0,1,382.86,81Z"/><path class="cls-18" d="M386.45,79.6a1.22,1.22,0,0,0-.81,1.58c.18.81.75,1.24,1.4,1.1a1.17,1.17,0,0,0,.95-.86l1.51.47a2.94,2.94,0,1,1-3.45-3.77,2.78,2.78,0,0,1,2.76.76l-1.15,1.06A1.29,1.29,0,0,0,386.45,79.6Z"/><path class="cls-18" d="M390.94,75.72c-.05-.23-.25-.32-.55-.25a2,2,0,0,0-1,.77l-.58-.7a3.05,3.05,0,0,1,1.56-1c.84-.18,1.54.12,1.68.77a2.25,2.25,0,0,1-.5,1.55l-.65,1,1.75-.39.19.86-3.13.69-.16-.71,1.16-1.86A1.24,1.24,0,0,0,390.94,75.72Z"/></g><g class="cls-17"><path class="cls-18" d="M326.4,198.29a7.86,7.86,0,0,0-3.81,6.13,8.88,8.88,0,0,0,2.59,6.81,12,12,0,0,0,3.76,2.45c3.81,1.65,8.91,1.94,12.4-.61,1.07-.79,2.16-2,2.05-3.46-.11-1.6-1.54-1.9-2.73-2.46a6,6,0,0,1-2.43-2.6c-1.32-2.26-2.48-4.79-4.69-6.19a6.92,6.92,0,0,0-4.77-.92A7.15,7.15,0,0,0,326.4,198.29Zm6.39,15.19a1.58,1.58,0,1,1,.83-2.08A1.59,1.59,0,0,1,332.79,213.48Zm5.6-4.67a1.16,1.16,0,1,1-1.46-.74A1.15,1.15,0,0,1,338.39,208.81Zm-9.29.28a1.58,1.58,0,1,1-2.07-.84A1.57,1.57,0,0,1,329.1,209.09Zm-3.27-2a1.58,1.58,0,1,1-1.25-2.9,1.58,1.58,0,1,1,1.25,2.9Zm7.12-5.57a1.58,1.58,0,0,1-2.91,1.24,1.58,1.58,0,1,1,2.91-1.24Zm-4.6-.82a1.58,1.58,0,0,1-2.91,1.24,1.58,1.58,0,1,1,2.91-1.24Z"/><path class="cls-18" d="M316.74,214.26a.39.39,0,0,0,0,.06h0l.06.06,0,0,.12.08.08,0,.08,0,.13.07h0c2.31,1.15,11.5,4.1,17.25,5.73h0l.41.12h0c.4.11.9.24,1.42.36.31.08.63.15.94.21l.31.07.84.15.45.06H339a1.36,1.36,0,0,0,1,.9,1.63,1.63,0,0,0,.31,0,6.43,6.43,0,0,0,1.25-.24,2,2,0,0,1,1.74.43l.08.06.21.17a4.7,4.7,0,0,0-.79-1.79,3.72,3.72,0,0,0-1.65-1.27,2,2,0,0,0-1.43,0,1.17,1.17,0,0,0-.29.17,13.72,13.72,0,0,0-1.28-.52c-.87-.32-1.9-.66-2.62-.86C329,216.55,316.91,213.67,316.74,214.26Z"/></g><polygon class="cls-2" points="273.62 48.45 271.65 50.64 272.35 53.51 269.65 52.31 267.14 53.86 267.44 50.93 265.2 49.02 268.08 48.4 269.2 45.67 270.68 48.22 273.62 48.45"/><polygon class="cls-2" points="345.98 172.67 344.01 174.87 344.71 177.73 342.01 176.54 339.5 178.09 339.8 175.16 337.56 173.25 340.44 172.63 341.56 169.9 343.04 172.45 345.98 172.67"/><polygon class="cls-2" points="425.18 85.96 422.29 86.54 421.13 89.25 419.69 86.68 416.75 86.42 418.75 84.25 418.1 81.38 420.77 82.61 423.3 81.1 422.96 84.02 425.18 85.96"/><polygon class="cls-2" points="579 52.24 576.11 52.82 574.95 55.53 573.51 52.96 570.57 52.7 572.57 50.53 571.91 47.66 574.59 48.89 577.12 47.38 576.78 50.3 579 52.24"/><polygon class="cls-2" points="548.94 151.56 546.05 152.14 544.89 154.85 543.45 152.28 540.51 152.01 542.51 149.85 541.86 146.97 544.53 148.2 547.06 146.69 546.72 149.62 548.94 151.56"/><polygon class="cls-2" points="581.04 267.15 578.15 267.73 576.99 270.44 575.55 267.87 572.61 267.6 574.61 265.44 573.96 262.56 576.63 263.79 579.16 262.28 578.82 265.21 581.04 267.15"/><polygon class="cls-2" points="249.25 152.26 246.36 152.84 245.2 155.55 243.75 152.98 240.82 152.72 242.81 150.55 242.16 147.68 244.84 148.91 247.37 147.4 247.03 150.32 249.25 152.26"/><path class="cls-9" d="M472.71,132.36l-5.48.95-4.38-3.43a10.24,10.24,0,0,0-9.29-1.9c-3.84,1.2-8.21,5-10.31,15.53-4.2,21,15.34,24.19,15.34,24.19s18.72,6.43,25-14.07c3.12-10.25,1.08-15.68-1.74-18.55A10.27,10.27,0,0,0,472.71,132.36Z"/><path class="cls-10" d="M464.46,168.63a21.91,21.91,0,0,1-5.88-.94s-19.53-3.18-15.33-24.18c2.11-10.51,6.47-14.32,10.31-15.53a10.21,10.21,0,0,1,9.29,1.9l1.57,1.22c-3.66,1.41-7.67,5.36-9.66,15.3C452.07,159.81,459.05,166,464.46,168.63Z"/><path class="cls-8" d="M476.31,126a13.2,13.2,0,0,0-12.68,11.56c-.28,2.07,2.91,2.83,3.19.73a10,10,0,0,1,9.6-9C478.52,129.21,478.42,125.93,476.31,126Z"/><path class="cls-19" d="M463.76,121.94c3.12,5.22.72,12.4.72,12.4s-7.46-1.28-10.58-6.49-.72-12.39-.72-12.39S460.64,116.73,463.76,121.94Z"/><path class="cls-15" d="M517.48,176.78c-3.18.82-13.68,6.34-19.31,9.72-29,17.39-80.14,50.93-78.61,53.49s55.2-26.85,84.17-44.24c5.63-3.38,15.39-9.9,17.65-12.47Z"/><path class="cls-2" d="M503.73,195.75c5.63-3.38,15.39-9.9,17.65-12.47l-3.9-6.49c-3.18.81-13.68,6.33-19.31,9.71l-1.9,1.15,5.55,9.25Z"/><path class="cls-16" d="M424.86,238.57c-3.12,1.32-5,1.87-5.3,1.42-1.54-2.56,49.65-36.11,78.61-53.5,5.63-3.38,16.13-8.88,19.31-9.7l1.56,2.59c-3.18.82-13.68,6.33-19.31,9.71C475.9,203.4,437,228.64,424.86,238.57Z"/><path class="cls-14" d="M519,179.38c-3.17.83-13.67,6.33-19.31,9.71l-1.89,1.15-1.56-2.59c.64-.4,1.27-.77,1.9-1.15,5.63-3.38,16.13-8.9,19.3-9.71Z"/><path class="cls-8" d="M517.08,181.24a6.83,6.83,0,0,1-.39-5.68,9.7,9.7,0,0,1,5-5,18.31,18.31,0,0,1,10.12-1.64,23.67,23.67,0,0,1,9.12,3.22c-.45.05-.87.1-1.31.17a4.76,4.76,0,0,0-.52.1,10.21,10.21,0,0,0-7.42,4.76c-1.08,1.78-1.9,3.73-3.37,5.3a7.85,7.85,0,0,1-1.18,1A6.83,6.83,0,0,1,517.08,181.24Z"/><path class="cls-6" d="M237,45.17l20.75,39a2.27,2.27,0,0,1-.95,3.07l-5.83,3.11a2.28,2.28,0,0,1-3.08-.93l-20.75-39a2.27,2.27,0,0,1,.94-3.08l5.84-3.11A2.28,2.28,0,0,1,237,45.17Z"/><path class="cls-5" d="M228,47.35a2.27,2.27,0,0,0-.94,3.07l20.75,39a2.28,2.28,0,0,0,3.08.94l2.91-1.56L231,45.79Z"/><path class="cls-6" d="M226.06,36.6h0A2.37,2.37,0,0,0,224.82,39l.21,1.75A12.37,12.37,0,0,0,226.38,45l1.42,2.67L231.05,46l3.25-1.73-1.43-2.67a12,12,0,0,0-2.79-3.5l-1.34-1.16A2.36,2.36,0,0,0,226.06,36.6Z"/><path class="cls-5" d="M228.1,36.51a2.34,2.34,0,0,0,0,.75l.22,1.76a12.39,12.39,0,0,0,1.35,4.27L231.05,46l-3.25,1.73L226.38,45A12.18,12.18,0,0,1,225,40.75L224.82,39a2.36,2.36,0,0,1,1.24-2.38h0A2.34,2.34,0,0,1,228.1,36.51Z"/><rect class="cls-8" x="227.49" y="48.63" width="11.17" height="2.27" transform="translate(3.97 115.42) rotate(-28.04)"/><rect class="cls-8" x="229.67" y="52.72" width="11.17" height="2.27" transform="translate(2.3 116.93) rotate(-28.04)"/><path class="cls-8" d="M244.62,65.41c2,3.78,2.52,7.43,1.14,8.17s-4.12-1.73-6.13-5.51-2.53-7.43-1.15-8.16S242.6,61.64,244.62,65.41Z"/><rect class="cls-8" x="243.81" y="79.26" width="11.17" height="2.27" transform="translate(-8.52 126.68) rotate(-28.04)"/><rect class="cls-8" x="245.98" y="83.35" width="11.17" height="2.27" transform="translate(-10.18 128.19) rotate(-28.04)"/><path class="cls-19" d="M422.87,205.74l-29.33,33a2.25,2.25,0,0,1-3.2.18l-4.95-4.39a2.28,2.28,0,0,1-.2-3.21l29.33-33a2.27,2.27,0,0,1,3.21-.19l4.95,4.39A2.29,2.29,0,0,1,422.87,205.74Z"/><path class="cls-20" d="M417.73,198.13a2.28,2.28,0,0,0-3.21.19l-29.32,33a2.27,2.27,0,0,0,.19,3.21l2.47,2.19,32.35-36.38Z"/><path class="cls-19" d="M427.12,192.54h0a2.38,2.38,0,0,0-2.67-.33l-1.58.81a12.24,12.24,0,0,0-3.53,2.75l-2,2.26,2.75,2.44,2.75,2.44,2-2.26a12.18,12.18,0,0,0,2.31-3.83l.62-1.66A2.38,2.38,0,0,0,427.12,192.54Z"/><path class="cls-20" d="M427.91,194.42a2.11,2.11,0,0,0-.71.23l-1.57.82a12.16,12.16,0,0,0-3.54,2.74l-2,2.26L417.33,198l2-2.25a12.11,12.11,0,0,1,3.53-2.75l1.58-.81a2.38,2.38,0,0,1,2.67.33h0A2.36,2.36,0,0,1,427.91,194.42Z"/><rect class="cls-8" x="416.07" y="198.11" width="2.27" height="11.17" transform="translate(-12.2 380.23) rotate(-48.37)"/><rect class="cls-8" x="413" y="201.57" width="2.27" height="11.17" transform="translate(-15.82 379.09) rotate(-48.37)"/><path class="cls-8" d="M406.55,220c-2.85,3.2-6.1,5-7.26,3.91s.19-4.47,3-7.67,6.09-4.94,7.26-3.91S409.39,216.75,406.55,220Z"/><rect class="cls-8" x="393.02" y="224.05" width="2.27" height="11.17" transform="translate(-39.33 371.69) rotate(-48.37)"/><rect class="cls-8" x="389.94" y="227.51" width="2.27" height="11.17" transform="translate(-42.96 370.54) rotate(-48.37)"/><path class="cls-10" d="M401.93,186.11l-42.42,12.2a2.26,2.26,0,0,1-2.8-1.56l-1.83-6.36a2.27,2.27,0,0,1,1.55-2.82l42.41-12.2a2.28,2.28,0,0,1,2.82,1.56l1.83,6.36A2.28,2.28,0,0,1,401.93,186.11Z"/><path class="cls-9" d="M401.66,176.93a2.28,2.28,0,0,0-2.82-1.56l-42.41,12.2a2.28,2.28,0,0,0-1.56,2.82l.92,3.18,46.79-13.46Z"/><path class="cls-10" d="M412.58,177.23h0a2.36,2.36,0,0,0-2.08-1.71l-1.76-.16a12.22,12.22,0,0,0-4.46.43l-2.91.84,1,3.53,1,3.54,2.9-.84a12.47,12.47,0,0,0,4-2l1.41-1.07A2.37,2.37,0,0,0,412.58,177.23Z"/><path class="cls-9" d="M412.25,179.24a2.25,2.25,0,0,0-.73-.19l-1.77-.15a12.15,12.15,0,0,0-4.45.43l-2.9.84-1-3.54,2.9-.84a12.18,12.18,0,0,1,4.46-.43l1.77.16a2.36,2.36,0,0,1,2.07,1.7h0A2.37,2.37,0,0,1,412.25,179.24Z"/><rect class="cls-8" x="397.11" y="175.77" width="2.27" height="11.17" transform="translate(-34.62 117.19) rotate(-16.05)"/><rect class="cls-8" x="392.66" y="177.05" width="2.27" height="11.17" transform="translate(-35.15 116) rotate(-16.05)"/><path class="cls-8" d="M380.54,189.39c-4.11,1.18-7.79.93-8.22-.58s2.55-3.67,6.66-4.85,7.79-.93,8.22.57S384.65,188.21,380.54,189.39Z"/><rect class="cls-8" x="363.76" y="185.37" width="2.27" height="11.17" transform="translate(-38.57 108.33) rotate(-16.05)"/><rect class="cls-8" x="359.31" y="186.65" width="2.27" height="11.17" transform="translate(-39.1 107.15) rotate(-16.05)"/></g></g></g></svg>